# xmcd
#
# Track frame offsets: 
#        150
#        19205
#        37325
#        57712
#        79392
#        101930
#        121167
#        137900
#        155482
#        174090
#        190805
#        214755
#        231637
#        252942
#        272562
#        292475
#        308587
#
# Disc length: 4339 seconds
#
# Revision: 0
# Processed by: cddbd v1.5.1PL0 Copyright (c) Steve Scherf et al.
# Submitted via: ExactAudioCopy v0.95a3
#
DISCID=0a10f111
DTITLE=Ottmar Liebert and Luna Negra - The very best
DYEAR=1900
DGENRE=Acoustic
TTITLE0=August Moon
TTITLE1=Thru the trees
TTITLE2=Ist rain - cry of faith
TTITLE3=When i'm with u
TTITLE4=Reaching out 2u
TTITLE5=Samba pa ti
TTITLE6=Black hair in the wind
TTITLE7=Snakecharmer
TTITLE8=Danza de los sentidos
TTITLE9=Albatross
TTITLE10=Havana club
TTITLE11=Isla del sol
TTITLE12=In the hands of love
TTITLE13=Dawn in a new world
TTITLE14=La rosa negra
TTITLE15=Borrasca
TTITLE16=Bullfighter's dream
EXTD=
EXTT0=
EXTT1=
EXTT2=
EXTT3=
EXTT4=
EXTT5=
EXTT6=
EXTT7=
EXTT8=
EXTT9=
EXTT10=
EXTT11=
EXTT12=
EXTT13=
EXTT14=
EXTT15=
EXTT16=
PLAYORDER=
